<svg xmlns="http://www.w3.org/2000/svg" viewBox="0 0 200 200" width="200" height="200">
  <defs>
    <radialGradient id="tireGrad" cx="50%" cy="50%" r="50%">
      <stop offset="0%" stop-color="#5a6a5a"/>
      <stop offset="58%" stop-color="#5a6a5a"/>
      <stop offset="62%" stop-color="#2d3a2d"/>
      <stop offset="85%" stop-color="#2d3a2d"/>
      <stop offset="88%" stop-color="#1d2a1d"/>
      <stop offset="100%" stop-color="#2d3a2d"/>
    </radialGradient>
    <clipPath id="clip">
      <circle cx="100" cy="100" r="90"/>
    </clipPath>
  </defs>
  <!-- Background circle (tire outer) -->
  <circle cx="100" cy="100" r="92" fill="#2d3a2d" stroke="#1d2a1d" stroke-width="2"/>
  <!-- Inner rim -->
  <circle cx="100" cy="100" r="55" fill="#5a6a5a" stroke="#444" stroke-width="1.5"/>
  <!-- Rim spokes -->
  <g stroke="#666" stroke-width="2" opacity="0.6">
    <line x1="100" y1="45" x2="100" y2="65"/>
    <line x1="155" y1="100" x2="135" y2="100"/>
    <line x1="100" y1="155" x2="100" y2="135"/>
    <line x1="45" y1="100" x2="65" y2="100"/>
    <line x1="139" y1="61" x2="125" y2="75"/>
    <line x1="139" y1="139" x2="125" y2="125"/>
    <line x1="61" y1="139" x2="75" y2="125"/>
    <line x1="61" y1="61" x2="75" y2="75"/>
  </g>
  <!-- Rim center -->
  <circle cx="100" cy="100" r="12" fill="#444"/>
  <circle cx="100" cy="100" r="6" fill="#333"/>
  <!-- Tread grooves -->
  <g fill="none" stroke="#1d2a1d" stroke-width="1.5" opacity="0.7">
    <path d="M100 12 Q85 30 80 45" />
    <path d="M100 188 Q85 170 80 155" />
    <path d="M12 100 Q30 85 45 80" />
    <path d="M188 100 Q170 85 155 80" />
    <path d="M50 25 Q60 40 65 55" />
    <path d="M150 25 Q140 40 135 55" />
    <path d="M50 175 Q60 160 65 145" />
    <path d="M150 175 Q140 160 135 145" />
    <path d="M25 50 Q40 60 55 65" />
    <path d="M175 50 Q160 60 145 65" />
    <path d="M25 150 Q40 140 55 135" />
    <path d="M175 150 Q160 140 145 135" />
  </g>
  <!-- Tread blocks on outer edge -->
  <g fill="#1d2a1d" opacity="0.5">
    <rect x="95" y="6" width="10" height="8" rx="1"/>
    <rect x="145" y="20" width="8" height="10" rx="1" transform="rotate(45 149 25)"/>
    <rect x="180" y="70" width="8" height="10" rx="1"/>
    <rect x="180" y="120" width="8" height="10" rx="1"/>
    <rect x="145" y="170" width="8" height="10" rx="1" transform="rotate(-45 149 175)"/>
    <rect x="95" y="186" width="10" height="8" rx="1"/>
    <rect x="47" y="170" width="8" height="10" rx="1" transform="rotate(45 51 175)"/>
    <rect x="12" y="120" width="8" height="10" rx="1"/>
    <rect x="12" y="70" width="8" height="10" rx="1"/>
    <rect x="47" y="20" width="8" height="10" rx="1" transform="rotate(-45 51 25)"/>
  </g>
  <!-- Highlight/shine -->
  <ellipse cx="75" cy="75" rx="30" ry="20" fill="white" opacity="0.06" transform="rotate(-30 75 75)"/>
  <!-- Label -->
  <text x="100" y="104" text-anchor="middle" font-family="Arial, sans-serif" font-size="7" font-weight="bold" fill="white" opacity="0.8">ECOPIA</text>
</svg>