<svg xmlns="http://www.w3.org/2000/svg" width="263" height="40" viewBox="0 0 263 40">
  <g fill="none" fill-rule="evenodd">
    <polygon fill="#164193" fill-rule="nonzero" points="140.917 32.238 138.263 39.759 249.24 39.759 251.808 32.238"/>
    <polygon fill="#E30521" fill-rule="nonzero" points="92.615 .042 88.954 10.212 112.041 10.212 102.037 39.759 131.324 39.759 141.484 10.212 259.414 10.212 262.933 .042"/>
    <path fill="#1D1D1B" fill-rule="nonzero" d="M142.888916,26.9404904 L146.535634,16.2322828 L161.136696,16.2322828 C161.136696,16.2322828 161.860364,16.2322828 162.115776,16.2747757 C163.094856,16.3597615 164.684087,17.2379478 164.684087,18.9801562 C164.684087,22.0963012 160.342081,22.1671227 159.590034,22.3937515 C159.504896,22.42208 161.519815,26.9404904 161.519815,26.9404904 L155.006804,26.9404904 L152.665526,21.6005509 L156.156159,21.6005509 C156.156159,21.6005509 158.227836,21.4305793 158.256215,19.9433283 C158.270404,18.6118845 156.737931,18.8101846 156.354813,18.8101846 L151.828342,18.8101846 L149.345168,26.9404904 L142.888916,26.9404904 L142.888916,26.9404904 Z"/>
    <polygon fill="#1D1D1B" fill-rule="nonzero" points="209.977 16.261 206.118 26.997 212.56 26.997 216.292 16.218"/>
    <polygon stroke="#1D1D1B" stroke-width=".076" points="209.977 16.261 206.103 27.011 212.56 27.011 216.292 16.218"/>
    <polygon fill="#1D1D1B" fill-rule="nonzero" points="241.946 16.232 238.271 26.997 253.638 26.997 254.561 24.193 245.607 24.193 248.303 16.218"/>
    <polygon stroke="#1D1D1B" stroke-width=".076" points="241.946 16.232 238.257 27.011 253.638 27.011 254.561 24.193 245.607 24.193 248.303 16.218"/>
    <path fill="#1D1D1B" fill-rule="nonzero" d="M173.240395,21.6147152 L177.483075,21.6147152 L176.064118,18.4277487 L173.240395,21.6147152 Z M162.016449,26.9404904 L171.43832,16.2747757 L181.456153,16.2747757 C181.456153,16.2747757 186.223847,26.968819 186.223847,26.9404904 C186.223847,26.9121618 179.824353,26.9404904 179.824353,26.9404904 L178.533103,24.192617 L171.012633,24.1501241 L168.486891,26.9404904 L162.016449,26.9404904 Z"/>
    <path stroke="#1D1D1B" stroke-width=".076" d="M173.226205,21.6147152 L177.468885,21.6147152 L176.049929,18.4135844 L173.226205,21.6147152 Z M161.98807,26.968819 L171.424131,16.2606114 L181.456153,16.2606114 C181.456153,16.2606114 186.238036,26.9829832 186.238036,26.968819 C186.238036,26.9404904 179.824353,26.968819 179.824353,26.968819 L178.533103,24.2067813 L170.998444,24.1642884 L168.472701,26.968819 L161.98807,26.968819 Z"/>
    <path fill="#1D1D1B" fill-rule="nonzero" d="M224.748515,21.5722223 L228.991195,21.5722223 L227.572238,18.3852558 L224.748515,21.5722223 Z M213.538759,26.8979975 L222.96063,16.2322828 L232.978462,16.2322828 C232.978462,16.2322828 237.760345,26.9263261 237.760345,26.8979975 C237.760345,26.8696689 231.360852,26.8979975 231.360852,26.8979975 L230.069601,24.1501241 L222.563322,24.1076312 L220.037579,26.8979975 L213.538759,26.8979975 Z"/>
    <path stroke="#1D1D1B" stroke-width=".076" d="M224.748515,21.5722223 L228.991195,21.5722223 L227.572238,18.3710915 L224.748515,21.5722223 Z M213.49619,26.9263261 L222.93225,16.2322828 L232.964273,16.2322828 C232.964273,16.2322828 237.746156,26.9546547 237.746156,26.9263261 C237.746156,26.8979975 231.332473,26.9263261 231.332473,26.9263261 L230.041222,24.1642884 L222.506563,24.1217955 L219.980821,26.9263261 L213.49619,26.9263261 Z"/>
    <path fill="#1D1D1B" fill-rule="nonzero" d="M195.205841,18.8101846 L193.403766,24.192617 L196.86602,24.192617 C196.86602,24.192617 200.11543,24.192617 200.810719,21.6572081 C201.335733,19.7025353 199.13635,18.7535275 198.49782,18.7535275 C197.646446,18.7535275 195.205841,18.8101846 195.205841,18.8101846 L195.205841,18.8101846 Z M190.778697,16.2322828 C190.778697,16.2322828 202.669552,16.2181185 202.7405,16.2322828 C204.797987,16.5438973 207.323729,17.9603269 206.557493,21.7846867 C205.890583,25.0849676 203.222945,26.5013972 201.548576,26.7705188 C200.76815,26.8979975 199.533658,26.9829832 199.533658,26.9829832 L186.904946,26.9829832 L190.778697,16.2322828 Z"/>
    <path fill="#1D1D1B" fill-rule="nonzero" d="M195.205841,18.8101846 L193.403766,24.2067813 L196.88021,24.2067813 C196.88021,24.2067813 200.14381,24.2067813 200.824909,21.6713724 C201.349923,19.7166996 199.15054,18.7535275 198.51201,18.7535275 C197.646446,18.7393632 195.205841,18.8101846 195.205841,18.8101846 L195.205841,18.8101846 Z M190.764507,16.2181185 C190.764507,16.2181185 202.669552,16.2039542 202.754689,16.2181185 C204.812176,16.529733 207.337919,17.9603269 206.571682,21.7846867 C205.904773,25.0991319 203.222945,26.5155615 201.548576,26.7846831 C200.76815,26.9121618 199.533658,26.9971475 199.533658,26.9971475 L186.876567,26.9971475 L190.764507,16.2181185 Z"/>
    <path stroke="#1D1D1B" stroke-width=".076" d="M195.205841,18.8101846 L193.403766,24.2067813 L196.88021,24.2067813 C196.88021,24.2067813 200.14381,24.2067813 200.824909,21.6713724 C201.349923,19.7166996 199.15054,18.7535275 198.51201,18.7535275 C197.646446,18.7393632 195.205841,18.8101846 195.205841,18.8101846 Z M190.764507,16.2181185 C190.764507,16.2181185 202.669552,16.2039542 202.754689,16.2181185 C204.812176,16.529733 207.337919,17.9603269 206.571682,21.7846867 C205.904773,25.0991319 203.222945,26.5155615 201.548576,26.7846831 C200.76815,26.9121618 199.533658,26.9971475 199.533658,26.9971475 L186.876567,26.9971475 L190.764507,16.2181185 Z"/>
    <path fill="#164193" fill-rule="nonzero" d="M92.6720468,0.042492887 L49.4364433,0.042492887 L39.4044211,0.042492887 C39.4044211,0.042492887 28.5919728,0.396600279 21.2133992,2.76203766 C16.686928,4.22096011 11.2665143,6.35976876 6.79680147,9.85834979 C3.44806421,12.4929088 -0.496634763,17.3937551 0.184464341,23.4419093 C0.837184315,29.2351063 5.19338067,31.9404867 7.47790058,33.6118736 C9.27997529,34.9291531 14.0760481,37.1246189 18.3612967,38.1727768 C23.7249521,39.4900563 30.9474405,39.9008209 32.1677431,39.8441637 L78.8656004,39.8441637 L86.797567,16.2747757 L49.9046989,16.2747757 L46.0451373,27.0538047 L53.3385736,27.0538047 L51.5790675,32.2237726 L43.4910157,32.2237726 C42.6538314,32.2237726 37.2050385,32.1671155 34.8495708,27.2804335 C33.2603396,23.9801526 34.0407656,21.2181149 35.1901204,18.8101846 C36.3962334,16.2747757 39.1915776,13.9093383 41.7740784,12.6912089 C44.3423896,11.4730795 48.4289842,10.4815788 51.5790675,10.3116072 C53.4804692,10.1982929 56.1622969,10.2266215 56.1622969,10.2266215 L89.0678974,10.2266215 L92.6720468,0.042492887 Z"/>
  </g>
</svg>
